<?xml version="1.0" ?><!DOCTYPE svg  PUBLIC '-//W3C//DTD SVG 1.1//EN'  'http://www.w3.org/Graphics/SVG/1.1/DTD/svg11.dtd'><svg enable-background="new 0 0 100 100" height="100px" id="Layer_1" version="1.1" viewBox="0 0 100 100" width="100px" xml:space="preserve" xmlns="http://www.w3.org/2000/svg" xmlns:xlink="http://www.w3.org/1999/xlink"><g><path d="M75,40.884V15H25v25.883L13,51.551V85h74V51.551L75,40.884z M27,17h46v40.705L49.999,70.848L27,57.706V17z M85,83H15   V52.449l10-8.89v13.004l-2.505-1.431l-0.992,1.736l28.496,16.284l28.496-16.284l-0.992-1.736L75,56.562V43.56l10,8.89V83z"/><rect height="2" width="20" x="34" y="23"/><rect height="2" width="32" x="34" y="31"/><rect height="2" width="32" x="34" y="39"/><rect height="2" width="32" x="34" y="47"/><rect height="2" width="32" x="34" y="55"/></g></svg>